<svg width="400" height="400" viewBox="0 0 400 400" fill="none" xmlns="http://www.w3.org/2000/svg">
<circle cx="200" cy="200" r="200" fill="white"/>
<path d="M107 180L106 193.5L109 192L111.5 191L115.5 190L119 189L123 188L125 187.5L129 186.5L133.5 185.5L136.5 185L141.5 184L146 183.5L149 183L153.5 182.5L157 182L160 181.5L164.5 181L168.5 180.5L173 180H175.5H179H184.5H188H195H203.5H209.5H214H220H227L235 180.5L239.5 181L242.5 181.5L246 182L250 182.5L254 183L258 184L263 185L268 186L272 187L276 188L281.5 189.5L285.5 191L288.5 192.5L294 195V194V192L293.5 188L293 184.5L292.5 181L292 178L291.5 174.5L291 171L290.5 167.5L289.5 164L288.5 161L287.5 158L286.5 155L285.5 152L284 147L281.5 139.5L279.5 134L278 130L276 126L273.5 121.5L271 117.5L267.5 112L264 108L259.5 102.5L256 99L253 96L250 93.5L247 91L243.5 88.5L239.5 86L235.5 83.5L231 81L225.5 79L220 77.5L214.5 76.5L207 76H200H195L189 76.5L184 77L179 78L175 79L167.5 81.5L161.5 84L158.5 85.5L155 88L150 91.5L147.5 93.5L144.5 96.5L142 99L138.5 103L134.5 108L131.5 112L127 118.5L122.5 127.5L117 140L114.5 146.5L113 151.5L111 159L108.5 170L107 180Z" fill="#0377FF" stroke="#085ECD"/>
<path d="M210.5 76.5H207.5V97.5L208.5 99.5L210.5 100.5H213L214.5 99.5L215.5 97.5V84V77L214.5 76.5H210.5Z" fill="#085ECD" stroke="#085ECD"/>
<path d="M186.824 77.5106L184 78.0213V78.5319V93.3404V96.9149L184.941 99.4681L186.353 100.489L188.5 100.5L190.118 100.489L191.529 99.4681L192 97.4255V94.8723V90.7872V86.7021V82.617V77H191.059H189.176L186.824 77.5106Z" fill="#085ECD" stroke="#085ECD"/>
<path d="M198.667 77H196V97.5532L197 99.5L198.5 100.5H200H201.5L203 99.5L204 97.5532V82.8723V77H203.467H201.333H198.667Z" fill="#085ECD" stroke="#085ECD"/>
<path d="M109.5 192.5L106.5 193.5L108.5 191L112 187.5L115.5 184.5L118 182.5L122 180.5L126 178.5L129.5 176.5L133.5 175L138.5 173L142.5 171.5L148.5 169.5L155.5 167.5L160.5 166.5L165.5 165.5L172.5 164.5L178 164H184H191.5H197H203.5H209.5H216L222.5 164.5L228.5 165L235 166L241.5 167L247 168.5L252 170L258.5 172L262.5 173.5L267 175.5L271.5 177.5L276.5 180.5L281.5 183.5L287 187L290.5 190L294 195L291 193.5L287 191.5L281 189L275.5 187.5L269.5 186L264.5 185L258.5 183.5L250 182L242.5 181L235 180.5L222.5 179.5H214.5H204H196H187.5L176.5 180L168 180.5L159 181.5L153 182L147.5 182.5L142.5 183.5L138 184.5L133.5 185.5L129 186.5L125 187.5L121.5 188.5L116.5 190L112.5 191.5L109.5 192.5Z" fill="#085ECD" stroke="#085ECD"/>
<path d="M203.5 281L201 283.5L200 282L199 281L197 280H190.5L188 280.5L184 282.5L181.5 284L178.5 286.5L176.5 288L174 290L172 291.5L169 294.5L165 298L160.5 300.5H151L149.5 299.5L148.5 298L148 296.5L148.5 295.5L149 294.5L150 294L152 293.5V289.5H151H148.5L146 290L143.5 292L142 293.5L141 296V303L142.5 306.5L145 309.5L148.5 312.5L154 315H169.5L175.5 313.5L181.5 311.5L184.5 310.5L188.5 307.5L192 305.5L196.5 302.5L198.5 300L200 298L201 296H202L203.5 299L205.5 301.5L208.5 304L211.5 306L215.5 308L219 309.5L223.5 311.5L228.5 313.5L233 314.5H238.5H247L250 313.5L253.5 312L256 310.5L258.5 308.5L261 305.5L262.5 303V300L262 295L261 292.5L258.5 291L256.5 290L252.5 289.5V292.5L254 293.5L255.5 294.5V296.5L254.5 298.5L253 300L250 301H246.5H241L239 299.5L237 298L234.5 296L232 293.5L228.5 290L226.5 288L223 285.5L220.5 283.5L218.5 282L214.5 280H205L203.5 281Z" fill="#C0936A" stroke="#9E7C5D"/>
<path d="M141.07 200.011L151.625 201.519L151.676 201.538L159.655 204.53L166.617 206.52L175.608 208.518L175.634 208.523L175.658 208.531L183.126 211.021L191.543 212.506H207.465L217.41 211.014L224.865 209.522L233.334 206.534L233.342 206.531L239.333 204.534L245.82 202.039L245.849 202.028L245.879 202.021L251.879 200.521L251.916 200.512L251.955 200.508L257.455 200.008L257.478 200.006H265.031L269.062 200.51L269.13 200.519L269.192 200.544L275.192 203.044L275.254 203.07L279.807 206.611L279.871 206.661L282.916 211.229L282.957 211.291L282.979 211.362L284.479 216.362L284.486 216.388L284.491 216.414L285.991 224.414L286 224.459V237.037L284.996 245.068L284.991 245.111L284.978 245.153L282.978 251.653L282.969 251.682L282.957 251.709L280.957 256.209L280.944 256.237L280.929 256.263L277.929 261.263L277.913 261.289L277.895 261.312L274.395 265.812L274.383 265.828L274.37 265.842L269.37 271.342L269.338 271.377L269.3 271.406L265.3 274.406L265.264 274.433L265.224 274.453L259.175 277.478L259.121 277.491L255.109 278.494L255.098 278.496L250.098 279.496L250.05 279.506H243.425L243.353 279.483L236.853 277.483L236.805 277.469L236.761 277.444L231.261 274.444L231.241 274.435L231.223 274.422L228.205 272.41L228.188 272.396L223.188 268.396L223.18 268.39L220.162 265.875L216.135 261.848L216.124 261.835L212.638 257.851L202.662 247.875L199.983 245.643L198.327 246.886L194.377 250.836L189.396 257.311L189.388 257.322L189.378 257.333L182.878 264.833L182.852 264.864L182.82 264.89L176.82 269.89L176.8 269.907L176.777 269.922L170.742 273.945L170.703 273.963L161.642 277.99L161.574 278L151.574 279.5L151.506 279.511L151.438 279.502L143.438 278.502L143.353 278.491L135.276 274.453L135.244 274.438L135.216 274.417L128.716 269.917L128.661 269.879L128.618 269.829L123.118 263.329L123.076 263.278L123.048 263.219L119.048 254.719L119.04 254.703L119.034 254.688L115.534 245.688L115.517 245.642L115.508 245.593L114.008 237.093L114 237.05V221.453L114.011 221.401L115.511 214.401L115.539 214.27L115.63 214.17L120.63 208.67L120.647 208.649L120.668 208.632L125.168 204.632L125.224 204.583L125.29 204.552L131.79 201.552L131.852 201.523L131.918 201.513L140.994 200L141.07 200.011ZM249.362 211.025L245.868 212.023L240.368 213.523L240.346 213.529L240.324 213.538L236.324 215.038L236.303 215.046L232.803 216.546L226.29 219.552L226.263 219.565L219.763 223.065L219.698 223.101L216.661 226.138L213.175 229.126L213.16 229.139L210 232.299V236.067L210.015 236.127L211.015 240.127L211.033 240.199L212.571 242.763L212.577 242.773L212.584 242.783L214.584 245.783L217.076 249.771L217.084 249.784L217.093 249.797L219.593 253.297L219.608 253.318L219.626 253.338L223.626 257.838L226.116 260.826L226.153 260.871L230.2 263.906L230.248 263.941L230.303 263.966L233.777 265.454L237.252 267.44L237.295 267.465L243.342 269.48L243.419 269.506H252.05L252.098 269.496L257.098 268.496L257.218 268.473L257.312 268.396L259.798 266.408L262.795 264.41L262.812 264.396L265.312 262.396L265.355 262.361L265.391 262.318L267.391 259.818L267.408 259.796L267.424 259.771L269.924 255.771L269.947 255.733L269.964 255.691L273.964 245.691L273.979 245.654L273.988 245.614L274.988 241.114L274.99 241.104L275.99 236.104L276 236.056V221.399L273.957 216.803L273.904 216.684L273.8 216.605L271.827 215.126L268.762 212.061L268.638 212.025L265.138 211.025L265.07 211.006H249.43L249.362 211.025ZM140.975 210.5L140.95 210.503L135.95 211.003L135.88 211.01L135.814 211.036L130.814 213.036L130.705 213.08L130.626 213.168L126.626 217.668L126.596 217.703L126.571 217.743L125.071 220.243L125.02 220.329L125.005 220.43L124.505 223.93L124.5 223.965V228.027L124.503 228.056L125.003 232.556L125.004 232.565L125.006 232.576L126.006 239.076L126.01 239.098L127.01 244.098L127.012 244.109L128.017 248.129L128.02 248.138L129.02 251.638L129.043 251.721L129.093 251.791L134.093 258.791L134.117 258.824L136.166 260.873L136.188 260.891L138.688 262.891L138.698 262.899L138.709 262.907L142.209 265.407L142.241 265.43L145.276 266.947L145.289 266.954L148.803 268.46L148.897 268.5H153.525L153.55 268.497L158.55 267.997L158.595 267.993L158.638 267.98L162.138 266.98L162.171 266.971L162.203 266.957L166.703 264.957L166.755 264.934L166.8 264.9L170.791 261.907L174.291 259.407L174.324 259.383L178.854 254.854L178.863 254.845L183.372 249.835L183.396 249.808L183.416 249.777L186.416 245.277L186.423 245.268L186.429 245.257L189.429 240.257L189.471 240.188L190.488 235.608L190.514 235.493L190.485 235.379L189.485 231.379L189.456 231.265L189.38 231.175L186.38 227.675L186.367 227.66L183.328 224.621L183.3 224.6L179.272 221.579L179.243 221.562L174.743 219.062L174.712 219.046L174.68 219.033L168.18 216.533L168.158 216.525L162.149 214.522L154.149 212.022L154.127 212.016L154.104 212.011L147.104 210.511L147.053 210.5H140.975Z" fill="url(#paint0_linear_16_50)"/>
<path d="M198.5 213H196V227.5L197 228.5L198.5 229H201L202.5 228.5L204 227.5V225V220V213H203H202H200H198.5Z" fill="#B6540B"/>
<defs>
<linearGradient id="paint0_linear_16_50" x1="200" y1="200" x2="200" y2="279.511" gradientUnits="userSpaceOnUse">
<stop stop-color="#F38F1D"/>
<stop offset="1" stop-color="#E56336"/>
</linearGradient>
</defs>
</svg>
